# Blender 4.1.1
# www.blender.org
mtllib garden.mtl
o garden
v 44.057861 -8.800062 -59.369263
v -45.558441 -8.800062 -59.369236
v 44.057861 24.676207 -59.369267
v -45.558441 24.676207 -59.369240
v -45.558434 -8.800062 56.817741
v 44.057858 -8.800062 56.817741
v -45.558434 24.676205 56.817741
v 44.057858 24.676205 56.817741
vn -0.0000 -0.0000 -1.0000
vn -0.0000 -0.0000 1.0000
vt 1.000000 0.000000
vt 0.000000 1.000000
vt 0.000000 0.000000
vt 1.000000 1.000000
s 0
usemtl garden
f 2/1/1 3/2/1 1/3/1
f 6/1/2 7/2/2 5/3/2
f 2/1/1 4/4/1 3/2/1
f 6/1/2 8/4/2 7/2/2
